
<svg xmlns="http://www.w3.org/2000/svg" width="512" height="512"><circle cx="256" cy="256" r="240" style="fill:#008837;stroke:#fff;stroke-width:20px"/><g transform="matrix(2.2857143,0,0,2.2857143,-914.28571,-191.82235)" style="fill:#008837"><circle cx="512.00623" cy="238.54443" r="20.087946"/><path d="m 512.00621,174.1023 c -24.6055,0 -46.78259,14.60617 -56.51409,37.19394 -2.3927,5.55321 0.17856,11.9992 5.73176,14.3919 5.5532,2.3927 11.9992,-0.1607 14.3919,-5.73176 6.26744,-14.5526 20.5522,-23.96269 36.40829,-23.96269 15.85608,0 30.12299,9.41009 36.40828,23.96269 1.7856,4.14258 5.82104,6.62456 10.07076,6.62456 1.44633,0 2.91052,-0.2857 4.32114,-0.8928 5.5532,-2.3927 8.12446,-8.83869 5.73176,-14.3919 -9.76721,-22.58777 -31.9443,-37.19394 -56.5498,-37.19394 z"/><path d="m 597.71478,179.54836 c -19.03445,-29.01592 -51.06802,-46.33619 -85.70857,-46.33619 -34.64055,0 -66.67412,17.32027 -85.70857,46.33619 -3.32121,5.05324 -1.91059,11.85635 3.1605,15.15971 1.85702,1.2142 3.92831,1.78559 5.9996,1.78559 3.57119,0 7.07096,-1.74988 9.17796,-4.9461 14.94543,-22.80205 40.14018,-36.42614 67.37051,-36.42614 27.23033,0 52.42508,13.62409 67.38836,36.444 3.32121,5.05323 10.10647,6.48171 15.15971,3.1605 5.05323,-3.32121 6.46385,-10.10647 3.1605,-15.17756 z"/></g></svg>
