<svg xmlns="http://www.w3.org/2000/svg" xmlns:xlink="http://www.w3.org/1999/xlink" version="1.1" width="512" height="512" viewBox="0 0 256 256" xml:space="preserve">

<defs>
</defs>
<g style="stroke: none; stroke-width: 0; stroke-dasharray: none; stroke-linecap: butt; stroke-linejoin: miter; stroke-miterlimit: 10; fill: none; fill-rule: nonzero; opacity: 1;" transform="translate(1.4065934065934016 1.4065934065934016) scale(2.81 2.81)" >
	<path d="M 45 90 L 45 90 C 20.147 90 0 69.853 0 45 v 0 C 0 20.147 20.147 0 45 0 h 0 c 24.853 0 45 20.147 45 45 v 0 C 90 69.853 69.853 90 45 90 z" style="stroke: none; stroke-width: 1; stroke-dasharray: none; stroke-linecap: butt; stroke-linejoin: miter; stroke-miterlimit: 10; fill: rgb(255,202,69); fill-rule: nonzero; opacity: 1;" transform=" matrix(1 0 0 1 0 0) " stroke-linecap="round" />
	<path d="M 70.938 41.979 c -0.798 0 -1.594 -0.316 -2.185 -0.943 C 62.499 34.399 54.063 30.744 45 30.744 c -9.063 0 -17.499 3.655 -23.752 10.292 c -1.136 1.207 -3.036 1.262 -4.241 0.126 c -1.206 -1.136 -1.263 -3.035 -0.126 -4.241 c 7.4 -7.853 17.386 -12.178 28.12 -12.178 c 10.734 0 20.721 4.325 28.12 12.178 c 1.136 1.206 1.08 3.104 -0.126 4.241 C 72.414 41.708 71.675 41.979 70.938 41.979 z" style="stroke: none; stroke-width: 1; stroke-dasharray: none; stroke-linecap: butt; stroke-linejoin: miter; stroke-miterlimit: 10; fill: rgb(255,255,255); fill-rule: nonzero; opacity: 1;" transform=" matrix(1 0 0 1 0 0) " stroke-linecap="round" />
	<path d="M 61.211 51.565 c -0.798 0 -1.594 -0.316 -2.185 -0.942 c -3.693 -3.92 -8.675 -6.08 -14.026 -6.08 c -5.351 0 -10.333 2.159 -14.026 6.08 c -1.136 1.206 -3.035 1.262 -4.241 0.126 c -1.206 -1.137 -1.263 -3.035 -0.126 -4.241 c 4.84 -5.136 11.372 -7.965 18.394 -7.965 c 7.022 0 13.555 2.829 18.394 7.965 c 1.136 1.206 1.079 3.104 -0.126 4.241 C 62.688 51.295 61.948 51.565 61.211 51.565 z" style="stroke: none; stroke-width: 1; stroke-dasharray: none; stroke-linecap: butt; stroke-linejoin: miter; stroke-miterlimit: 10; fill: rgb(255,255,255); fill-rule: nonzero; opacity: 1;" transform=" matrix(1 0 0 1 0 0) " stroke-linecap="round" />
	<circle cx="44.996" cy="57.79600000000001" r="6.456" style="stroke: none; stroke-width: 1; stroke-dasharray: none; stroke-linecap: butt; stroke-linejoin: miter; stroke-miterlimit: 10; fill: rgb(255,255,255); fill-rule: nonzero; opacity: 1;" transform="  matrix(1 0 0 1 0 0) "/>
</g>
</svg>